PathFileType	4	(X/Y/Z)	C:/Users/opensim2020/Desktop/walking_exp_matlab/subject02_walking07_straight_04.trc																																																																																																																																																				
DataRate	CameraRate	NumFrames	NumMarkers	Units	OrigDataRate	OrigDataStartFrame	OrigNumFrames																																																																																																																																																
100	100	4	50	mm	100	2772	207																																																																																																																																																
Frame#	Time	LFHD			RFHD			LBHD			RBHD			C7			T10			CLAV			STRN			RBAK			LSHO			LUPA			LELB			LFRM			LWRA			LWRB			LFIN			RSHO			RUPA			RELB			RFRM			RWRA			RWRB			RFIN			LASI			RASI			LPSI			RPSI			LTHI			LKNE			LTIB			LANK			LHEE			LTOE			RTHI			RKNE			RTIB			RANK			RHEE			RTOE			*39			*40			*41			*42			*43			*44			*45			*46			*47			*48			*49		
		X1	Y1	Z1	X2	Y2	Z2	X3	Y3	Z3	X4	Y4	Z4	X5	Y5	Z5	X6	Y6	Z6	X7	Y7	Z7	X8	Y8	Z8	X9	Y9	Z9	X10	Y10	Z10	X11	Y11	Z11	X12	Y12	Z12	X13	Y13	Z13	X14	Y14	Z14	X15	Y15	Z15	X16	Y16	Z16	X17	Y17	Z17	X18	Y18	Z18	X19	Y19	Z19	X20	Y20	Z20	X21	Y21	Z21	X22	Y22	Z22	X23	Y23	Z23	X24	Y24	Z24	X25	Y25	Z25	X26	Y26	Z26	X27	Y27	Z27	X28	Y28	Z28	X29	Y29	Z29	X30	Y30	Z30	X31	Y31	Z31	X32	Y32	Z32	X33	Y33	Z33	X34	Y34	Z34	X35	Y35	Z35	X36	Y36	Z36	X37	Y37	Z37	X38	Y38	Z38	X39	Y39	Z39	X40	Y40	Z40	X41	Y41	Z41	X42	Y42	Z42	X43	Y43	Z43	X44	Y44	Z44	X45	Y45	Z45	X46	Y46	Z46	X47	Y47	Z47	X48	Y48	Z48	X49	Y49	Z49	X50	Y50	Z50
																																																																																																																																																							
52	0.51	-246.75607	1715.16077	926.90051	-267.59616	1700.70898	1068.75659	-383.60773	1657.16479	902.23602	-416.66565	1642.84949	1041.79395	-456.23523	1508.58411	983.68677	-494.6268	1230.09229	998.17084	-313.16708	1445.5802	975.22284	-250.80998	1280.16907	1001.40735	-506.34781	1332.51025	1056.88696	-388.2915	1469.74561	804.54175	-434.3085	1270.53882	735.40729	-465.63721	1134.7428	735.12012	-495.44547	1008.60822	719.2962	-477.62335	868.98547	742.52679	-522.53528	887.86359	713.39722	-530.11688	819.60681	714.7099	-378.81128	1491.36426	1171.60938	-377.01984	1303.02026	1268.63843	-324.67542	1166.4248	1303.03064	-246.60802	1072.87122	1319.88965	-147.78398	983.84937	1298.6825	-186.07753	958.02759	1331.74829	-122.8401	924.38269	1335.01843	-239.17276	984.30743	882.43628	-275.32346	955.02765	1135.21899	-460.66281	1020.40057	932.28595	-479.78186	1012.02588	1045.7085	-240.27711	684.23578	807.74744	-218.16888	482.63913	836.98895	-237.28812	288.88455	828.92444	-205.73209	71.47029	862.48376	-241.08986	43.33342	913.46307	-48.3534	35.34443	857.729	-423.9845	667.47711	1202.62976	-466.24802	464.94476	1193.72144	-604.78308	336.3923	1193.09668	-724.6413	184.73987	1160.19189	-771.76654	158.52373	1097.57898	-643.94745	40.7654	1180.62317	-349.47812	1795.6228	1001.91809	-2845.96826	1034.09045	3357.17603	NaN	NaN	NaN	NaN	NaN	NaN	NaN	NaN	NaN	NaN	NaN	NaN	NaN	NaN	NaN	NaN	NaN	NaN	NaN	NaN	NaN	NaN	NaN	NaN	NaN	NaN	NaN
53	0.52	-238.04298	1716.35962	925.35803	-258.83887	1701.71802	1067.38062	-374.60992	1658.18469	900.71356	-407.85461	1643.63049	1040.01013	-446.83258	1509.46643	981.81873	-484.63657	1230.83398	996.10114	-303.67593	1446.92542	973.07263	-240.50485	1281.61536	998.37653	-496.36334	1333.19971	1054.84924	-378.62418	1471.20361	802.39117	-419.86194	1270.55371	732.63043	-448.50143	1134.12549	732.35754	-475.36011	1007.29938	716.52167	-454.68222	868.12531	741.01257	-499.36111	885.83258	710.67242	-505.67026	817.47583	712.51721	-368.88284	1492.33301	1169.53296	-368.45114	1303.67322	1265.63477	-317.92462	1166.45459	1299.60107	-241.67523	1071.35071	1316.36743	-144.58104	980.13538	1295.19568	-183.71869	955.12335	1328.14636	-121.04584	920.26312	1331.62744	-229.23714	986.67419	878.57196	-264.32224	955.91895	1129.97791	-450.55768	1021.74963	929.84875	-468.74017	1013.02722	1044.03882	-229.62213	685.01453	805.32574	-212.16451	483.10141	835.1792	-234.91667	289.56131	828.5304	-205.47313	71.45103	862.54858	-240.9805	43.40274	913.5885	-47.91604	35.0006	857.87646	-409.54074	667.10498	1200.40906	-448.04416	464.51605	1194.55518	-589.13446	339.5936	1194.67957	-712.10272	191.13753	1160.93896	-759.56726	167.84474	1097.52625	-641.03516	41.58299	1179.57361	-340.68701	1796.72754	1000.65436	-2845.84424	1034.1134	3357.0415	NaN	NaN	NaN	NaN	NaN	NaN	NaN	NaN	NaN	NaN	NaN	NaN	NaN	NaN	NaN	NaN	NaN	NaN	NaN	NaN	NaN	NaN	NaN	NaN	NaN	NaN	NaN
54	0.53	-229.2235	1717.78625	924.06476	-250.03297	1702.78076	1065.94678	-365.71722	1659.46973	899.17993	-398.91824	1644.62891	1038.49573	-437.45724	1510.32141	979.85986	-474.91464	1231.70105	994.10059	-294.12961	1448.2749	971.052	-230.5368	1282.96692	995.73547	-485.85538	1333.98865	1052.9115	-368.99423	1472.8739	800.49823	-405.43271	1270.88354	729.94244	-430.97238	1133.89734	729.43573	-453.84082	1006.4386	713.69324	-430.91534	867.67181	739.79907	-475.24353	884.35388	707.97992	-480.01669	815.8075	710.18817	-359.1904	1493.45044	1167.33752	-359.9046	1304.47742	1262.62683	-311.28345	1166.66797	1296.10364	-237.07172	1070.03589	1313.05017	-142.37685	976.37183	1291.5918	-181.39894	952.62958	1325.21191	-119.66953	916.18915	1328.19092	-219.74184	989.08575	874.94281	-253.59402	956.93274	1124.97949	-440.64069	1022.84705	927.56769	-458.22574	1013.94501	1042.35681	-220.11385	685.88055	803.04449	-207.19214	483.1907	833.12653	-233.72777	289.62918	828.75568	-205.48566	71.37845	862.6402	-241.42923	43.32545	913.54517	-47.77406	34.75556	857.72845	-394.71329	666.21252	1198.34973	-429.54453	463.81296	1194.83594	-572.35553	342.06235	1195.51147	-698.74707	197.19957	1161.58997	-746.94684	176.97966	1097.73962	-637.24896	43.28608	1178.08179	-332.10983	1797.93213	999.44843	-2846.0918	1033.95728	3357.26782	NaN	NaN	NaN	NaN	NaN	NaN	NaN	NaN	NaN	NaN	NaN	NaN	NaN	NaN	NaN	NaN	NaN	NaN	NaN	NaN	NaN	NaN	NaN	NaN	NaN	NaN	NaN
55	0.54	-220.53589	1719.38245	922.68719	-241.16988	1703.93481	1064.51208	-356.76474	1660.86731	897.8504	-389.9585	1645.4325	1037.03894	-428.14362	1511.17664	977.91919	-465.16611	1232.64807	992.06708	-284.59518	1449.61646	969.11682	-221.82527	1284.13928	993.4762	-476.90338	1335.21399	1051.35754	-359.36578	1474.59985	798.68243	-390.78561	1271.30237	727.44952	-413.35931	1133.89514	726.65521	-432.95572	1005.90308	711.1969	-406.71793	867.91107	738.39276	-450.55234	883.3678	705.16718	-453.57358	814.47595	707.79596	-349.69812	1494.61011	1165.18262	-351.30075	1305.43506	1260.05383	-304.74927	1167.07129	1292.77429	-232.63426	1068.81152	1310.05945	-139.90851	972.86914	1288.43396	-179.54279	950.08173	1322.00183	-118.63038	911.85889	1324.64099	-210.49768	991.44257	871.52795	-243.22119	957.91785	1120.40063	-431.11792	1023.70361	925.56348	-448.14627	1014.79352	1040.64905	-211.96315	686.82971	800.86176	-203.46849	482.95139	831.19696	-233.26941	289.47339	829.12878	-205.51262	71.32224	862.67871	-241.17935	43.382	913.58795	-47.70215	34.6392	857.83215	-379.8497	665.09058	1196.60901	-410.74234	463.01712	1195.03711	-554.82959	344.10284	1195.87781	-685.13269	203.46101	1161.99292	-734.13971	185.95444	1097.99341	-630.71075	47.00206	1176.25366	-323.60001	1798.9668	998.37787	-2845.8562	1034.026	3357.13013	NaN	NaN	NaN	NaN	NaN	NaN	NaN	NaN	NaN	NaN	NaN	NaN	NaN	NaN	NaN	NaN	NaN	NaN	NaN	NaN	NaN	NaN	NaN	NaN	NaN	NaN	NaN
